<svg width="113" height="113" viewBox="0 0 113 113" fill="none" xmlns="http://www.w3.org/2000/svg">
<path d="M56 12.002C45.5035 11.896 35.3941 15.9382 27.8936 23.2404C20.393 30.5426 16.1151 40.5072 16 50.9443C16.0404 59.1925 18.7089 67.2158 23.622 73.8618C28.5352 80.5077 35.4403 85.4343 43.3455 87.934C45.3455 88.2955 46.0727 87.1023 46.0727 86.0537C46.0727 85.0052 46.0727 82.691 46.0727 79.4368C34.9455 81.7871 32.5818 74.2301 32.5818 74.2301C31.8411 71.8577 30.2663 69.8298 28.1455 68.5171C24.5091 66.1306 28.4364 66.1668 28.4364 66.1668C29.6933 66.3339 30.8958 66.7818 31.9539 67.4769C33.0119 68.172 33.8979 69.0962 34.5455 70.1804C35.6739 72.1261 37.5256 73.5535 39.7019 74.1554C41.8781 74.7572 44.2051 74.4854 46.1818 73.3984C46.3851 71.4183 47.2869 69.5738 48.7273 68.1917C39.8545 67.2154 30.5455 63.8889 30.5455 48.9556C30.4661 45.0602 31.9136 41.2868 34.5818 38.4336C33.3666 35.0892 33.5101 31.4056 34.9818 28.1647C34.9818 28.1647 38.3636 27.1161 45.8909 32.1421C52.4433 30.4059 59.3386 30.4059 65.8909 32.1421C73.5273 27.1161 76.8 28.1647 76.8 28.1647C78.2717 31.4056 78.4152 35.0892 77.2 38.4336C79.9302 41.2346 81.4562 44.9826 81.4545 48.8833C81.4545 63.8527 72.0727 67.1431 63.2727 68.1193C64.2363 69.0496 64.9806 70.1805 65.4522 71.4309C65.9238 72.6813 66.1108 74.0201 66 75.351V86.0176C66 86.0176 66.7273 88.2955 68.7273 87.8978C76.61 85.3827 83.4919 80.4549 88.3898 73.8184C93.2878 67.1818 95.9513 59.176 96 50.9443C95.8849 40.5072 91.607 30.5426 84.1064 23.2404C76.6059 15.9382 66.4965 11.896 56 12.002Z" fill="white"/>
</svg>
